<svg id="SvgjsSvg1001" width="288" height="288" xmlns="http://www.w3.org/2000/svg" version="1.1" xmlns:xlink="http://www.w3.org/1999/xlink" xmlns:svgjs="http://svgjs.com/svgjs"><defs id="SvgjsDefs1002"></defs><g id="SvgjsG1008"><svg xmlns="http://www.w3.org/2000/svg" xmlns:svgjs="http://svgjs.com/svgjs" xmlns:xlink="http://www.w3.org/1999/xlink" viewBox="0 0 288 288" width="288" height="288"><svg xmlns="http://www.w3.org/2000/svg" enable-background="new 0 0 122.88 107.78" viewBox="0 0 122.88 107.78" width="288" height="288"><path fill="#0078c4" d="M2.1,81.26c-1.16,0-2.1-0.94-2.1-2.1c0-1.16,0.94-2.1,2.1-2.1h9.09V12.44H2.1c-1.16,0-2.1-0.94-2.1-2.1 c0-1.16,0.94-2.1,2.1-2.1h57.12V2.1c0-1.16,0.94-2.1,2.1-2.1s2.1,0.94,2.1,2.1v6.14h57.12c1.16,0,2.1,0.94,2.1,2.1 c0,1.16-0.94,2.1-2.1,2.1h-8.95v64.62h9.18c1.16,0,2.1,0.94,2.1,2.1c0,1.16-0.94,2.1-2.1,2.1H63.75v9.6 c0.1,0.07,0.2,0.15,0.29,0.23l13.12,12.48c0.84,0.8,0.87,2.12,0.07,2.96c-0.8,0.84-2.12,0.87-2.96,0.07L63.75,96.6v9.08 c0,1.16-0.94,2.1-2.1,2.1c-1.16,0-2.1-0.94-2.1-2.1V96.2L48.6,106.61c-0.84,0.8-2.17,0.76-2.96-0.07c-0.8-0.84-0.77-2.17,0.07-2.96 L58.84,91.1c0.21-0.2,0.46-0.35,0.71-0.45v-9.39H2.1L2.1,81.26z M61.44,28.04c9.28,0,16.81,7.53,16.81,16.81 c0,9.28-7.53,16.81-16.81,16.81c-9.28,0-16.81-7.53-16.81-16.81C44.63,35.57,52.16,28.04,61.44,28.04L61.44,28.04z M70.05,44.94 l-13.4-8.72v17.89L70.05,44.94L70.05,44.94z M15.39,77.06h92V12.44h-92V77.06L15.39,77.06z" class="color000 svgShape color53b0de"></path></svg></svg></g></svg>